<?xml version="1.0" encoding="utf-8"?>
<!-- Generator: Adobe Illustrator 16.0.0, SVG Export Plug-In . SVG Version: 6.00 Build 0)  -->
<!DOCTYPE svg PUBLIC "-//W3C//DTD SVG 1.1//EN" "http://www.w3.org/Graphics/SVG/1.1/DTD/svg11.dtd">
<svg version="1.1" id="图层_1" xmlns="http://www.w3.org/2000/svg" xmlns:xlink="http://www.w3.org/1999/xlink" x="0px" y="0px"
	 width="29.582px" height="33.36px" viewBox="0 0 29.582 33.36" enable-background="new 0 0 29.582 33.36" xml:space="preserve">
<g>
	<defs>
		<rect id="SVGID_1_" width="29.582" height="33.36"/>
	</defs>
	<clipPath id="SVGID_2_">
		<use xlink:href="#SVGID_1_"  overflow="visible"/>
	</clipPath>
	<path clip-path="url(#SVGID_2_)" fill="#095697" d="M28.69,28.744h-2.537v-3.429c0-0.441-0.377-0.815-0.823-0.815H13.878
		c-0.446,0-0.823,0.374-0.823,0.815v3.429h-2.64c-0.48,0-0.857,0.373-0.857,0.848v2.92c0,0.476,0.377,0.849,0.857,0.849h18.309
		c0.481,0,0.858-0.373,0.858-0.849v-2.92C29.582,29.117,29.17,28.744,28.69,28.744 M14.701,26.129h9.806v2.58h-9.806V26.129z
		 M27.833,31.663H11.272v-1.188h16.595v1.188H27.833z"/>
	<path clip-path="url(#SVGID_2_)" fill="#095697" d="M7.02,14.646c0.788,0,1.473-0.339,1.986-0.848
		c0.514,0.542,1.233,0.848,2.021,0.848h0.102c0.514,0,0.959-0.136,1.37-0.373v3.424c0,1.525,1.267,2.78,2.808,2.78
		c1.541,0,2.809-1.255,2.809-2.78V3.254C18.115,1.458,16.643,0,14.828,0H3.287C1.472,0,0,1.458,0,3.254v8.612
		c0,1.525,1.267,2.78,2.808,2.78h0.103c0.787,0,1.472-0.339,1.986-0.848c0.514,0.542,1.233,0.848,2.02,0.848H7.02z M5.879,11.946
		V8.709c0-0.569-0.467-0.996-1.006-0.996H4.406c-0.574,0-1.005,0.463-1.005,0.996v3.343c0,0.426-0.359,0.782-0.79,0.782H2.503
		c-0.503,0-0.934-0.391-0.934-0.925V2.914c0-0.782,0.646-1.422,1.437-1.422h12.141c0.789,0,1.436,0.64,1.436,1.422v15.148
		c0,0.497-0.396,0.925-0.934,0.925c-0.502,0-0.934-0.392-0.934-0.925V8.709c0-0.569-0.467-0.996-1.006-0.996h-0.647
		c-0.574,0-1.005,0.463-1.005,0.996v3.343c0,0.426-0.359,0.782-0.79,0.782h-0.108c-0.503,0-0.934-0.391-0.934-0.925V8.675
		c0-0.569-0.467-0.996-1.006-0.996H8.752c-0.574,0-1.005,0.462-1.005,0.996v3.342c0,0.427-0.36,0.782-0.791,0.782H6.849
		C6.31,12.834,5.879,12.443,5.879,11.946"/>
</g>
</svg>
