<?xml version="1.0" encoding="utf-8"?>
<!-- Generator: Adobe Illustrator 16.0.0, SVG Export Plug-In . SVG Version: 6.00 Build 0)  -->
<!DOCTYPE svg PUBLIC "-//W3C//DTD SVG 1.1//EN" "http://www.w3.org/Graphics/SVG/1.1/DTD/svg11.dtd">
<svg version="1.1" id="图层_1" xmlns="http://www.w3.org/2000/svg" xmlns:xlink="http://www.w3.org/1999/xlink" x="0px" y="0px"
	 width="80px" height="70px" viewBox="0 0 80 70" enable-background="new 0 0 80 70" xml:space="preserve">
<path fill="#095697" stroke="#FFFFFF" stroke-width="0.4" stroke-miterlimit="10" d="M70.845,52.379
	c-0.066-0.033-0.1-0.1-0.166-0.166L56.085,39.146c-0.929-0.829-2.355-0.729-3.185,0.199s-0.763,2.321,0.166,3.15l14.627,13.068
	c1.691,1.691,1.691,4.444,0,6.169c-0.862,0.829-1.99,1.261-3.085,1.261c-1.127,0-2.222-0.432-3.084-1.261L48.456,47.139
	c-0.829-0.929-2.255-1.028-3.184-0.199c-0.896,0.829-0.995,2.256-0.166,3.185l13.068,14.594c0.065,0.066,0.099,0.132,0.165,0.165
	c1.659,1.692,3.914,2.621,6.269,2.621c2.355,0,4.577-0.929,6.236-2.621C74.294,61.467,74.294,55.829,70.845,52.379"/>
<path fill="#095697" stroke="#FFFFFF" stroke-width="0.4" stroke-miterlimit="10" d="M71.707,5.547
	c-1.394-1.393-3.251-2.156-5.208-2.156c-1.094,0-2.188,0.232-3.184,0.696c-4.047,1.426-13.399,4.875-20.199,8.657
	c-0.696,0.365-1.359,0.763-1.957,1.161c-0.265-0.398-0.563-0.763-0.929-1.062L27.826,2.198c-0.896-0.73-1.957-1.128-3.051-1.128
	c-1.194,0-2.388,0.464-3.317,1.393l-2.189,2.156c-0.63,0.664-1.061,1.459-1.26,2.289c-0.829,0.199-1.625,0.63-2.255,1.26
	L14.46,9.461l-1.293,1.294c-0.664,0.663-1.095,1.459-1.261,2.289c-0.829,0.199-1.625,0.597-2.289,1.26l-2.189,2.189
	c-1.725,1.725-1.824,4.511-0.232,6.368l13.797,16.086c0.033,0.033,0.066,0.033,0.1,0.066c0.166,0.199,1.459,1.625,3.615,3.118
	L10.513,56.293c-1.393,1.393-2.156,3.25-2.156,5.207c0,1.99,0.763,3.848,2.156,5.207c1.393,1.394,3.25,2.189,5.208,2.189
	s3.814-0.796,5.207-2.189l50.78-50.746C74.559,13.076,74.559,8.4,71.707,5.547 M24.775,5.747l12.438,10.646
	c-1.459,1.327-2.62,2.653-3.516,3.748L22.586,7.936L24.775,5.747z M24.542,35.895L10.745,19.81l2.189-2.189l12.537,11.443
	l1.725-1.725L16.45,14.071l1.293-1.293l1.294-1.293l13.101,10.547l0.431-0.431c-0.498,0.696-0.763,1.127-0.763,1.127v12.305
	l-3.748,3.714C25.902,37.388,24.542,35.895,24.542,35.895 M68.39,12.645L17.611,63.424c-0.498,0.498-1.194,0.763-1.891,0.763
	c-0.697,0-1.36-0.265-1.891-0.763c-1.061-1.062-1.061-2.753,0-3.814l16.816-16.815c0.298-0.166,0.564-0.398,0.829-0.663l3.615-3.615
	c0.266-0.266,0.498-0.531,0.697-0.83l0.696-0.729V24.486c0,0,1.957-3.814,8.889-7.662c6.832-3.781,16.749-7.363,19.801-8.424
	c0.397-0.232,0.862-0.332,1.326-0.332c0.697,0,1.36,0.266,1.891,0.796C69.451,9.892,69.451,11.584,68.39,12.645"/>
<path fill="#B7D9EC" stroke="#B4D4E6" stroke-miterlimit="10" d="M68.493,12.573L17.296,63.77c-0.501,0.503-1.204,0.77-1.906,0.77
	c-0.702,0-1.371-0.267-1.906-0.77c-1.07-1.069-1.07-2.775,0-3.846L30.438,42.97c0.301-0.166,0.568-0.4,0.836-0.669l3.645-3.645
	c0.268-0.268,0.501-0.535,0.702-0.836l0.703-0.736V24.512c0,0,1.973-3.846,8.961-7.725c6.889-3.813,16.889-7.424,19.964-8.494
	c0.402-0.234,0.87-0.334,1.339-0.334c0.702,0,1.371,0.268,1.905,0.803C69.563,9.797,69.563,11.503,68.493,12.573"/>
</svg>
