<?xml version="1.0" encoding="utf-8"?>
<!-- Generator: Adobe Illustrator 16.0.0, SVG Export Plug-In . SVG Version: 6.00 Build 0)  -->
<!DOCTYPE svg PUBLIC "-//W3C//DTD SVG 1.1//EN" "http://www.w3.org/Graphics/SVG/1.1/DTD/svg11.dtd">
<svg version="1.1" id="图层_1" xmlns="http://www.w3.org/2000/svg" xmlns:xlink="http://www.w3.org/1999/xlink" x="0px" y="0px"
	 width="80px" height="74px" viewBox="0 0 80 74" enable-background="new 0 0 80 74" xml:space="preserve">
<path fill="#095697" stroke="#095697" stroke-miterlimit="10" d="M62.207,18.176c-1.274-1.91-3.935-2.397-5.824-1.138l-5.278,3.55
	l-5.687-5.69c-1.011-1.011-2.367-1.364-3.731-1.137h-0.043l-3.276,0.683c1.703-1.514,2.679-3.681,2.683-5.959
	c0-4.406-3.602-8.008-8.007-8.008c-4.405,0-8.007,3.602-8.007,8.008c0,3.492,2.281,6.464,5.415,7.553l-2.139,0.454
	c-0.037,0.007-0.055,0.038-0.091,0.046c-1.341,0.26-2.455,1.187-2.956,2.458v0.045l-4.05,10.282l-7.19-1.866h-0.042
	c-2.19-0.437-4.463,0.925-4.916,3.186c-0.437,2.188,0.775,4.322,2.823,5.003c0.044,0.002,0.089,0.002,0.135,0l10.737,2.776
	c0.104,0.026,0.212,0.041,0.32,0.044c0.096,0.046,0.146,0.138,0.636,0.138c1.041,0,1.914-0.476,2.638-1.137v5.596L22.26,54.438
	c-0.007,0.014,0.006,0.03,0,0.045l-0.044,0.09c-0.441,0.987-0.398,2.101,0,3.096l5.413,13.376v0.045
	c0.662,1.544,2.111,2.64,3.822,2.64c0.276,0,0.847,0.017,1.592-0.319c0.021-0.009,0.072,0.01,0.092,0v-0.045
	c1.896-0.917,2.878-3.107,2.092-5.142l0.091-0.045l-3.913-12.284l3.186-7.098l0.91,6.869c0,0.059,0.087,0.122,0.09,0.183
	c0.029,0.718,0.285,1.539,0.865,2.23l-0.048,0.043l0.138,0.184l7.871,10.602c0,0.015,0,0.029,0,0.044
	c0.834,1.042,2.126,1.549,3.321,1.549c0.767,0,1.702-0.257,2.456-0.91l0.047,0.046c0.029-0.023,0.017-0.068,0.045-0.093
	c0.028-0.025,0.063-0.018,0.09-0.044l-0.044-0.047c1.675-1.395,2.115-3.853,0.772-5.642l-7.006-9.646V25.001l3.774,3.867
	c1.392,1.388,3.576,1.58,5.188,0.455h0.045l7.963-5.368c0.031-0.014,0.062-0.029,0.092-0.045
	C62.869,22.627,63.508,20.128,62.207,18.176z M29.434,12.095c-0.957-0.957-1.493-2.257-1.487-3.61c0-2.832,2.264-5.096,5.096-5.096
	s5.096,2.264,5.096,5.096s-2.264,5.096-5.096,5.096C31.689,13.587,30.39,13.051,29.434,12.095z M59.387,21.588l-7.919,5.323
	c-0.015,0.015-0.03,0.03-0.045,0.047c-0.397,0.283-1.087,0.194-1.456-0.138l-6.279-6.416c-0.415-0.43-1.054-0.561-1.607-0.33
	c-0.552,0.232-0.906,0.779-0.893,1.378v33.166c-0.004,0.31,0.091,0.612,0.273,0.865l7.277,10.055c0.016,0,0.032,0,0.048,0
	c0.36,0.481,0.193,1.389-0.32,1.773c-0.05,0.043-0.095,0.088-0.135,0.138c-0.095,0.093-0.253,0.136-0.591,0.136
	c-0.522,0-0.704-0.052-1.003-0.41l-0.045-0.043l-7.963-10.739c-0.04-0.063-0.085-0.124-0.135-0.183
	c-0.095-0.092-0.181-0.205-0.181-0.546c0.003-0.06,0.003-0.119,0-0.181l-1.594-12.102c-0.08-0.651-0.585-1.168-1.232-1.264
	c-0.647-0.094-1.28,0.255-1.544,0.852l-5.55,12.24c-0.144,0.331-0.16,0.702-0.045,1.045l4.094,12.786
	c0.012,0.063,0.027,0.123,0.046,0.183c0.22,0.494-0.141,1.285-0.728,1.546c-0.058,0.006-0.229,0.047-0.41,0.047
	c-0.327,0-0.925-0.369-1.136-0.863l-5.371-13.379c-0.166-0.415-0.119-0.716-0.043-0.864c0.017-0.044,0.032-0.09,0.043-0.136
	l4.233-11.783c0.059-0.163,0.09-0.331,0.09-0.502V31.508c0.018-0.712-0.48-1.333-1.18-1.469c-0.698-0.135-1.393,0.255-1.641,0.923
	l-1.593,3.867c-0.204,0.472-0.758,0.787-1.092,0.817c-0.041-0.021-0.194-0.024-0.273-0.045l-10.646-2.729
	c-0.012-0.005,0.011-0.042,0-0.046c-0.56-0.212-1.098-0.928-0.955-1.637c0.123-0.623,0.728-1.002,1.409-0.91h0.092l8.372,2.184
	c0.711,0.191,1.455-0.18,1.729-0.865l4.503-11.51c0.105-0.262,0.547-0.645,0.775-0.683c0.015-0.015,0.029-0.03,0.043-0.045
	l13.331-2.729c0.027-0.004,0.063,0.001,0.093,0c0.389-0.023,0.996,0.175,1.135,0.319l6.553,6.551
	c0.487,0.482,1.245,0.557,1.818,0.181l6.281-4.231c0.73-0.486,1.3-0.391,1.773,0.32C60.24,20.438,60.006,21.122,59.387,21.588z"/>
<path fill="#B7D9EC" stroke="#095697" stroke-width="2.4" stroke-miterlimit="10" d="M65.664,29.597
	c-1.165,0-1.456,0.728-1.456,1.455v10.191c0,1.602,0,2.913-2.913,2.913c-4.222,0-5.822,1.746-5.822,4.368
	c0,1.163,0.873,4.367,5.822,4.367c5.534,0,5.825-3.786,5.825-5.823V36.875c0-1.02,0.145-1.456,0.728-1.456
	c2.766,0,3.777,1.456,6.688,1.456c0,0,1.465-0.009,1.319-1.319v-3.049c0-1.165-0.582-1.457-1.456-1.457
	C69.158,31.051,70.613,29.597,65.664,29.597"/>
</svg>
