<?xml version="1.0" encoding="utf-8"?>
<!-- Generator: Adobe Illustrator 16.0.0, SVG Export Plug-In . SVG Version: 6.00 Build 0)  -->
<!DOCTYPE svg PUBLIC "-//W3C//DTD SVG 1.1//EN" "http://www.w3.org/Graphics/SVG/1.1/DTD/svg11.dtd">
<svg version="1.1" id="图层_1" xmlns="http://www.w3.org/2000/svg" xmlns:xlink="http://www.w3.org/1999/xlink" x="0px" y="0px"
	 width="80px" height="70px" viewBox="0 0 80 70" enable-background="new 0 0 80 70" xml:space="preserve">
<path fill="#095697" d="M68.033,69.367H11.967c-1.725,0-3.109-1.34-3.109-2.99V3.623c0-1.649,1.4-2.99,3.109-2.99h56.066
	c1.724,0,3.108,1.341,3.108,2.99v62.754C71.142,68.027,69.757,69.367,68.033,69.367"/>
<path fill="#FFFFFF" d="M66.65,8.047c0-1.781-1.51-3.227-3.354-3.227H16.575c-1.86,0-3.354,1.445-3.354,3.227v53.922
	c0,1.779,1.51,3.227,3.354,3.227h46.722c1.86,0,3.354-1.447,3.354-3.227V8.047z"/>
<path fill="#095697" d="M57.084,15.277c0.159,0.063,0.635,0.206,1.446,0.412c1.144,0.303,1.955,0.557,2.416,0.764
	c0.46,0.19,0.811,0.477,1.08,0.858c0.271,0.382,0.381,0.843,0.381,1.399c0,0.539-0.158,1.049-0.476,1.541
	c-0.318,0.476-0.779,0.858-1.368,1.113c-0.604,0.253-1.271,0.396-2.033,0.396c-1.256,0-2.21-0.254-2.861-0.779
	c-0.651-0.523-1.08-1.287-1.254-2.305l1.604-0.253c0.095,0.65,0.35,1.144,0.762,1.478c0.414,0.35,0.985,0.523,1.732,0.523
	c0.748,0,1.304-0.158,1.67-0.459c0.364-0.303,0.539-0.669,0.539-1.082c0-0.365-0.159-0.651-0.477-0.874
	c-0.223-0.143-0.779-0.334-1.669-0.557c-1.191-0.302-2.018-0.556-2.479-0.778s-0.811-0.524-1.049-0.922
	c-0.239-0.381-0.35-0.811-0.35-1.287c0-0.43,0.096-0.826,0.302-1.191c0.207-0.366,0.461-0.668,0.795-0.906
	c0.255-0.191,0.604-0.35,1.032-0.477c0.43-0.127,0.906-0.191,1.415-0.191c0.763,0,1.414,0.111,1.986,0.334s0.985,0.509,1.256,0.891
	c0.271,0.365,0.461,0.873,0.557,1.493l-1.59,0.223c-0.08-0.493-0.286-0.874-0.636-1.16c-0.351-0.271-0.843-0.413-1.478-0.413
	c-0.747,0-1.288,0.127-1.605,0.365c-0.318,0.254-0.478,0.54-0.478,0.875c0,0.206,0.063,0.396,0.207,0.571
	C56.592,15.008,56.798,15.15,57.084,15.277"/>
<path fill="#095697" d="M48.486,21.521L46.96,15.77l-0.365-1.637l-1.954,7.389h-1.7L40,11.908h1.685l1.525,5.546l0.572,2.067
	c0.017-0.096,0.19-0.764,0.492-1.987l1.526-5.626h1.668l1.446,5.578l0.478,1.842l0.555-1.857l1.653-5.563h1.589l-3.003,9.613H48.486
	z"/>
<path fill="#095697" d="M38.648,16.691c0-1.574-0.413-2.813-1.223-3.688c-0.81-0.873-1.859-1.318-3.146-1.318
	c-1.335,0-2.417,0.445-3.242,1.335c-0.842,0.89-1.256,2.146-1.256,3.767c0,1.557,0.414,2.766,1.239,3.639
	c0.811,0.875,1.923,1.303,3.337,1.303c1.113,0,2.034-0.269,2.75-0.809c0.715-0.541,1.208-1.304,1.478-2.289L36.9,18.425
	c-0.238,0.683-0.572,1.175-1.001,1.493c-0.413,0.316-0.921,0.477-1.525,0.477c-0.795,0-1.463-0.285-2.003-0.842
	c-0.524-0.572-0.827-1.383-0.89-2.432h7.151C38.648,16.93,38.648,16.787,38.648,16.691z M31.577,15.77
	c0.047-0.826,0.333-1.494,0.842-2.002c0.509-0.492,1.145-0.747,1.891-0.747c0.827,0,1.494,0.302,2.019,0.938
	c0.334,0.413,0.541,1.017,0.62,1.812H31.577z"/>
<path fill="#095697" d="M25.712,15.674c0-0.666-0.063-1.159-0.191-1.493c-0.126-0.333-0.349-0.589-0.666-0.794
	c-0.319-0.191-0.7-0.303-1.129-0.303c-0.7,0-1.288,0.223-1.797,0.668c-0.508,0.445-0.761,1.271-0.761,2.511v5.245H19.53v-9.615
	h1.462v1.366c0.699-1.049,1.732-1.589,3.068-1.589c0.571,0,1.112,0.111,1.589,0.317c0.492,0.207,0.842,0.478,1.097,0.811
	c0.238,0.334,0.413,0.747,0.508,1.208c0.063,0.303,0.096,0.826,0.096,1.59v5.912h-1.638V15.674z"/>
<path fill="#B7D9EC" stroke="#095697" stroke-width="2" stroke-miterlimit="10" d="M21.867,28.751h36.106
	c0.923,0,1.685,0.715,1.685,1.605v3.719c0,0.891-0.746,1.605-1.685,1.605H21.867c-0.923,0-1.685-0.715-1.685-1.605v-3.719
	C20.182,29.466,20.929,28.751,21.867,28.751"/>
<path fill="#B7D9EC" stroke="#095697" stroke-width="2" stroke-miterlimit="10" d="M21.867,39.964h36.106
	c0.923,0,1.685,0.717,1.685,1.605v3.719c0,0.891-0.746,1.605-1.685,1.605H21.867c-0.923,0-1.685-0.715-1.685-1.605v-3.719
	C20.182,40.681,20.929,39.964,21.867,39.964"/>
<path fill="#B7D9EC" stroke="#095697" stroke-width="2" stroke-miterlimit="10" d="M21.867,51.178h36.106
	c0.923,0,1.685,0.715,1.685,1.605v3.719c0,0.891-0.746,1.604-1.685,1.604H21.867c-0.923,0-1.685-0.713-1.685-1.604v-3.719
	C20.182,51.893,20.929,51.178,21.867,51.178"/>
</svg>
