<?xml version="1.0" encoding="utf-8"?>
<!-- Generator: Adobe Illustrator 16.0.0, SVG Export Plug-In . SVG Version: 6.00 Build 0)  -->
<!DOCTYPE svg PUBLIC "-//W3C//DTD SVG 1.1//EN" "http://www.w3.org/Graphics/SVG/1.1/DTD/svg11.dtd">
<svg version="1.1" id="图层_1" xmlns="http://www.w3.org/2000/svg" xmlns:xlink="http://www.w3.org/1999/xlink" x="0px" y="0px"
	 width="29px" height="29px" viewBox="0 0 29 29" enable-background="new 0 0 29 29" xml:space="preserve">
<g>
	<defs>
		<rect id="SVGID_1_" width="29" height="29"/>
	</defs>
	<clipPath id="SVGID_2_">
		<use xlink:href="#SVGID_1_"  overflow="visible"/>
	</clipPath>
	<path clip-path="url(#SVGID_2_)" fill="#FF6879" d="M26.724,18.768c0.212-0.927,0.328-1.873,0.328-2.819
		c0-4.388-2.235-8.39-5.981-10.693c-0.227-0.14-0.526-0.068-0.667,0.159c-0.14,0.227-0.066,0.527,0.16,0.667
		c3.456,2.124,5.523,5.812,5.523,9.867c0,0.835-0.098,1.666-0.276,2.486c-0.222-0.049-0.453-0.072-0.689-0.072
		c-1.863,0-3.379,1.516-3.379,3.379c0,1.864,1.516,3.38,3.379,3.38c1.862,0,3.379-1.516,3.379-3.38
		C28.5,20.457,27.78,19.337,26.724,18.768 M25.121,24.155c-1.332,0-2.414-1.081-2.414-2.414c0-1.332,1.082-2.414,2.414-2.414
		s2.414,1.082,2.414,2.414C27.535,23.074,26.453,24.155,25.121,24.155"/>
	<path clip-path="url(#SVGID_2_)" fill="none" stroke="#095697" d="M26.724,18.768c0.212-0.927,0.328-1.873,0.328-2.819
		c0-4.388-2.235-8.39-5.981-10.693c-0.227-0.14-0.526-0.068-0.667,0.159c-0.14,0.227-0.066,0.527,0.16,0.667
		c3.456,2.124,5.523,5.812,5.523,9.867c0,0.835-0.098,1.666-0.276,2.486c-0.222-0.049-0.453-0.072-0.689-0.072
		c-1.863,0-3.379,1.516-3.379,3.379c0,1.864,1.516,3.38,3.379,3.38c1.862,0,3.379-1.516,3.379-3.38
		C28.5,20.457,27.78,19.337,26.724,18.768z M25.121,24.155c-1.332,0-2.414-1.081-2.414-2.414c0-1.332,1.082-2.414,2.414-2.414
		s2.414,1.082,2.414,2.414C27.535,23.074,26.453,24.155,25.121,24.155z"/>
	<path clip-path="url(#SVGID_2_)" fill="#FF6879" d="M18.927,26.655c-1.404,0.585-2.896,0.879-4.427,0.879
		c-3.084,0-6.048-1.241-8.216-3.423c0.603-0.608,0.975-1.448,0.975-2.37c0-1.863-1.516-3.379-3.379-3.379
		c-1.864,0-3.38,1.516-3.38,3.379s1.516,3.379,3.38,3.379c0.594,0,1.149-0.153,1.632-0.42c2.355,2.419,5.604,3.8,8.988,3.8
		c1.656,0,3.274-0.318,4.799-0.95c0.246-0.103,0.361-0.388,0.261-0.634C19.457,26.67,19.174,26.555,18.927,26.655 M1.465,21.741
		c0-1.332,1.081-2.414,2.414-2.414c1.332,0,2.414,1.082,2.414,2.414s-1.082,2.414-2.414,2.414
		C2.546,24.155,1.465,23.073,1.465,21.741"/>
	<path clip-path="url(#SVGID_2_)" fill="none" stroke="#095697" d="M18.927,26.655c-1.404,0.585-2.896,0.879-4.427,0.879
		c-3.084,0-6.048-1.241-8.216-3.423c0.603-0.608,0.975-1.448,0.975-2.37c0-1.863-1.516-3.379-3.379-3.379
		c-1.864,0-3.38,1.516-3.38,3.379s1.516,3.379,3.38,3.379c0.594,0,1.149-0.153,1.632-0.42c2.355,2.419,5.604,3.8,8.988,3.8
		c1.656,0,3.274-0.318,4.799-0.95c0.246-0.103,0.361-0.388,0.261-0.634C19.457,26.67,19.174,26.555,18.927,26.655z M1.465,21.741
		c0-1.332,1.081-2.414,2.414-2.414c1.332,0,2.414,1.082,2.414,2.414s-1.082,2.414-2.414,2.414
		C2.546,24.155,1.465,23.073,1.465,21.741z"/>
	<path clip-path="url(#SVGID_2_)" fill="#FF6879" d="M2.431,15.566h0.034c0.251,0,0.463-0.193,0.483-0.449
		c0.342-4.866,3.659-8.935,8.313-10.287c0.41,1.4,1.709,2.428,3.239,2.428c1.863,0,3.379-1.516,3.379-3.379
		c0-1.864-1.516-3.38-3.379-3.38c-1.859,0-3.374,1.512-3.379,3.37C6.013,5.289,2.359,9.73,1.982,15.056
		C1.963,15.32,2.166,15.548,2.431,15.566 M14.5,1.465c1.332,0,2.414,1.081,2.414,2.414c0,1.332-1.082,2.414-2.414,2.414
		s-2.414-1.082-2.414-2.414C12.086,2.546,13.168,1.465,14.5,1.465"/>
	<path clip-path="url(#SVGID_2_)" fill="none" stroke="#095697" d="M2.431,15.566h0.034c0.251,0,0.463-0.193,0.483-0.449
		c0.342-4.866,3.659-8.935,8.313-10.287c0.41,1.4,1.709,2.428,3.239,2.428c1.863,0,3.379-1.516,3.379-3.379
		c0-1.864-1.516-3.38-3.379-3.38c-1.859,0-3.374,1.512-3.379,3.37C6.013,5.289,2.359,9.73,1.982,15.056
		C1.963,15.32,2.166,15.548,2.431,15.566z M14.5,1.465c1.332,0,2.414,1.081,2.414,2.414c0,1.332-1.082,2.414-2.414,2.414
		s-2.414-1.082-2.414-2.414C12.086,2.546,13.168,1.465,14.5,1.465z"/>
</g>
</svg>
