<?xml version="1.0" encoding="utf-8"?>
<!-- Generator: Adobe Illustrator 16.0.0, SVG Export Plug-In . SVG Version: 6.00 Build 0)  -->
<!DOCTYPE svg PUBLIC "-//W3C//DTD SVG 1.1//EN" "http://www.w3.org/Graphics/SVG/1.1/DTD/svg11.dtd">
<svg version="1.1" id="图层_1" xmlns="http://www.w3.org/2000/svg" xmlns:xlink="http://www.w3.org/1999/xlink" x="0px" y="0px"
	 width="80px" height="70px" viewBox="0 0 80 70" enable-background="new 0 0 80 70" xml:space="preserve">
<path fill="#095697" d="M40.869,67.697c-11.225,0-18.875-3.224-22.739-9.578c-0.42-0.629-0.686-1.042-0.819-1.273
	c-0.07-0.123-0.195-0.394-0.385-0.961c-0.138-0.409-0.207-0.805-0.207-1.181c-0.002-0.496,0.091-0.963,0.284-1.425
	c0.198-0.476,0.465-0.9,0.797-1.261c0.314-0.341,0.687-0.599,1.141-0.785c0.459-0.188,0.906-0.283,1.327-0.283
	c0.18,0,0.348,0.021,0.498,0.063c0.179,0.051,0.343,0.112,0.497,0.189c0.16,0.081,0.341,0.193,0.539,0.336
	c0.224,0.158,0.417,0.301,0.576,0.432c0.149,0.122,0.332,0.286,0.544,0.498c0.222,0.221,0.278,0.31,0.28,0.315l0.124,0.187
	l0.519,0.624c0.222,0.296,0.395,0.505,0.478,0.588c-0.004,0.006,0.051,0.113,0.125,0.258l0.042,0.079l0.364,0.487
	c4.102,4.764,9.739,7.152,16.8,7.152c3.46,0,6.297-0.523,8.434-1.556c2.121-1.026,4.36-2.891,6.657-5.545l0.137-0.132l0.064-0.105
	c0.545-0.884,0.987-1.584,1.328-2.096c0.281-0.425,0.726-0.862,1.32-1.307c0.481-0.36,0.99-0.548,1.55-0.572h0.118
	c1.028,0.002,1.872,0.37,2.576,1.13c0.725,0.778,1.076,1.671,1.076,2.729c0,1.025-0.427,2.157-1.271,3.36
	C59.739,64.474,52.087,67.697,40.869,67.697z"/>
<path fill="#B7D9EC" stroke="#095697" stroke-width="3" stroke-miterlimit="10" d="M40.407,48.803
	c-2.722-0.002-4.966-0.907-6.863-2.769c-1.89-1.857-2.809-4.046-2.809-6.691c0-1.739,0.439-3.343,1.305-4.764
	c0.875-1.436,2.063-2.593,3.531-3.436c1.461-0.839,3.087-1.266,4.834-1.266c2.651,0.002,4.861,0.908,6.759,2.77
	c1.891,1.857,2.81,4.044,2.81,6.692c0,1.239-0.253,2.469-0.751,3.653c-0.5,1.188-1.178,2.214-2.013,3.05
	c-0.838,0.836-1.863,1.514-3.047,2.013c-1.184,0.496-2.446,0.748-3.758,0.748H40.407z"/>
<path fill="#B7D9EC" stroke="#095697" stroke-width="3" stroke-miterlimit="10" d="M15.797,31.29
	c-0.752-2.915-1.966-5.355-3.629-7.301c-1.988-2.319-4.469-4.002-7.412-5.03c5.934-1.844,9.62-6.072,11.016-12.637
	c0.194,0.759,0.423,1.49,0.688,2.19c0.988,2.601,2.37,4.707,4.113,6.264c1.7,1.519,3.538,2.713,5.464,3.549
	c0.533,0.231,1.081,0.441,1.638,0.626c-2.927,1.07-5.552,2.829-7.84,5.262C18.005,26.164,16.656,28.53,15.797,31.29z"/>
<path fill="#095697" d="M62.806,25.762c-0.793,0-1.488-0.177-2.131-0.541c-0.646-0.367-1.154-0.862-1.553-1.514
	c-0.389-0.638-0.576-1.33-0.576-2.116c0-1.175,0.407-2.139,1.245-2.95c0.85-0.818,1.839-1.217,3.027-1.217
	c0.557,0,1.126,0.115,1.695,0.342c1.678,0.729,2.473,1.948,2.473,3.829c0,1.18-0.395,2.149-1.205,2.962
	c-0.812,0.81-1.78,1.205-2.962,1.205H62.806z"/>
<path fill="#095697" d="M51.922,15.394c-0.279,0-0.657-0.08-1.075-0.696c-0.404-0.594-0.601-1.29-0.601-2.126v-0.625
	c0.001-0.07,0.015-0.167,0.033-0.275c0.031-0.159,0.063-0.296,0.093-0.417c0.024-0.089,0.063-0.204,0.114-0.333
	c0.036-0.094,0.076-0.167,0.125-0.23c0.16-0.214,0.292-0.467,0.394-0.754c1.081-2.337,2.67-4.144,4.713-5.371
	c2.077-1.247,4.815-1.878,8.141-1.878c6.316,0,10.5,2.321,12.783,7.096v0.018l0.111,0.227c0.238,0.473,0.324,0.696,0.354,0.788
	c0.065,0.199,0.146,0.478,0.244,0.836c0.08,0.289,0.119,0.6,0.119,0.922c0,0.829-0.192,1.501-0.587,2.055
	c-0.418,0.585-0.801,0.661-1.09,0.661c-0.008,0-0.761-0.081-2.203-2.966l-0.206,0.048l0.15-0.042
	c-2.474-3.823-5.906-5.761-10.198-5.761c-2.056,0-3.793,0.438-5.162,1.3c-1.252,0.788-2.465,2.097-3.7,3.995h-0.227l-0.259,0.632
	C52.83,15.313,52.012,15.394,51.922,15.394z"/>
<g id="产品_点播云" transform="translate(-661.000000, -1961.000000)">
	<g id="应用场景" transform="translate(290.000000, 1818.000000)">
		<g id="ups_sence_2" transform="translate(347.000000, 119.000000)">
			<rect id="Bounds" x="130.75" y="-1.66" fill="none" width="166" height="130"/>
		</g>
	</g>
</g>
</svg>
