<?xml version="1.0" encoding="utf-8"?>
<!-- Generator: Adobe Illustrator 16.0.0, SVG Export Plug-In . SVG Version: 6.00 Build 0)  -->
<!DOCTYPE svg PUBLIC "-//W3C//DTD SVG 1.1//EN" "http://www.w3.org/Graphics/SVG/1.1/DTD/svg11.dtd">
<svg version="1.1" id="图层_1" xmlns="http://www.w3.org/2000/svg" xmlns:xlink="http://www.w3.org/1999/xlink" x="0px" y="0px"
	 width="32px" height="32px" viewBox="0 0 32 32" enable-background="new 0 0 32 32" xml:space="preserve">
<defs>
	<filter id="Adobe_OpacityMaskFilter" filterUnits="userSpaceOnUse" x="-1.75" y="-1.75" width="35.5" height="35.5">
		<feColorMatrix  type="matrix" values="1 0 0 0 0  0 1 0 0 0  0 0 1 0 0  0 0 0 1 0"/>
	</filter>
</defs>
<mask maskUnits="userSpaceOnUse" x="-1.75" y="-1.75" width="35.5" height="35.5" id="mask-2_1_">
	<g filter="url(#Adobe_OpacityMaskFilter)">
		<circle id="path-1_2_" fill="#FFFFFF" cx="16" cy="16" r="16"/>
	</g>
</mask>
<g id="Group-2" transform="translate(5.000000, 5.000000)" mask="url(#mask-2_1_)">
	<g id="Oval-20">
		<g id="path-1_1_">
			<path fill="#095697" stroke="#095697" stroke-width="0.5" d="M11,28.5C1.351,28.5-6.5,20.649-6.5,11S1.351-6.5,11-6.5
				S28.5,1.351,28.5,11S20.649,28.5,11,28.5z M11-3.5C3.005-3.5-3.5,3.005-3.5,11S3.005,25.5,11,25.5S25.5,18.995,25.5,11
				S18.995-3.5,11-3.5z"/>
		</g>
	</g>
	<path fill="#095697" stroke="#095697" stroke-width="0.5" d="M15.875,1.477l-2.166,4.768L8.833-4.483L-2.311,20.04h26.621
		L15.875,1.477z M21.937,18.448h-2.683l-2.337-5.143l1.341-2.952L21.937,18.448z M16.092,15.122l1.512,3.326H14.58L16.092,15.122z
		 M14.534,8.061l1.341-2.952l1.558,3.429l-1.341,2.952L14.534,8.061z M15.267,13.306l-2.337,5.143H9.813l3.896-8.571L15.267,13.306z
		 M8.833-0.851l4.049,8.912l-4.72,10.388H0.063L8.833-0.851z"/>
</g>
</svg>
