<?xml version="1.0" encoding="utf-8"?>
<!-- Generator: Adobe Illustrator 16.0.0, SVG Export Plug-In . SVG Version: 6.00 Build 0)  -->
<!DOCTYPE svg PUBLIC "-//W3C//DTD SVG 1.1//EN" "http://www.w3.org/Graphics/SVG/1.1/DTD/svg11.dtd">
<svg version="1.1" id="图层_1" xmlns="http://www.w3.org/2000/svg" xmlns:xlink="http://www.w3.org/1999/xlink" x="0px" y="0px"
	 width="80px" height="70px" viewBox="0 0 80 70" enable-background="new 0 0 80 70" xml:space="preserve">
<path fill="#B7D9EC" stroke="#095697" stroke-width="3" stroke-miterlimit="10" d="M77.89,27.956c0,5.248-4.24,9.502-9.473,9.502
	c-5.23,0-9.473-4.254-9.473-9.502c0,5.248-4.242,9.502-9.471,9.502c-5.234,0-9.474-4.254-9.474-9.502
	c0,5.248-4.241,9.502-9.473,9.502s-9.472-4.254-9.472-9.502c0,5.248-4.24,9.502-9.474,9.502c-5.231,0-9.471-4.254-9.471-9.502
	l6.66-17.817h62.458L77.89,27.956z"/>
<path fill="#095697" d="M66.05,6.575H13.951c-1.963,0-3.551-1.1-3.551-2.457c0-1.358,1.588-2.458,3.551-2.458H66.05
	c1.961,0,3.551,1.1,3.551,2.458C69.601,5.476,68.011,6.575,66.05,6.575"/>
<path fill="#095697" d="M12.767,41.979v-0.002c0.339-0.033-0.341-0.084-0.009-0.141c0.072-0.013,0.146-0.019,0.218-0.031
	c0.151-0.028,0.299-0.071,0.452-0.106c0.642-0.147,1.272-0.331,1.876-0.567v19.563h49.392V41.132
	c0.605,0.236,1.233,0.419,1.875,0.566c0.151,0.035,0.301,0.079,0.456,0.107c0.069,0.013,0.144,0.019,0.215,0.031
	c0.331,0.057-0.349,0.107-0.008,0.141v0.002c0.391,0.035,0.785,0.057,1.184,0.057c0.811,0,1.6-0.085,2.369-0.226v22.964
	c0,1.97-1.592,3.565-3.553,3.565H12.767c-1.961,0-3.553-1.596-3.553-3.565V41.811c0.769,0.141,1.559,0.226,2.369,0.226
	C11.982,42.036,12.376,42.015,12.767,41.979"/>
</svg>
