<?xml version="1.0" encoding="utf-8"?>
<!-- Generator: Adobe Illustrator 16.0.0, SVG Export Plug-In . SVG Version: 6.00 Build 0)  -->
<!DOCTYPE svg PUBLIC "-//W3C//DTD SVG 1.1//EN" "http://www.w3.org/Graphics/SVG/1.1/DTD/svg11.dtd">
<svg version="1.1" id="图层_1" xmlns="http://www.w3.org/2000/svg" xmlns:xlink="http://www.w3.org/1999/xlink" x="0px" y="0px"
	 width="80px" height="70px" viewBox="0 0 80 70" enable-background="new 0 0 80 70" xml:space="preserve">
<path fill="#095697" d="M11.469,69c-4.734,0-8.586-3.852-8.586-8.584V24.013c0-4.733,3.852-8.584,8.586-8.584h13.08l0.11-0.878
	C25.623,6.826,32.217,1,39.998,1s14.377,5.826,15.341,13.55l0.109,0.878h13.083c4.732,0,8.585,3.851,8.585,8.584v36.403
	c0,4.731-3.853,8.584-8.585,8.584L11.469,69L11.469,69z M71.512,51.127C65.391,52.46,60.574,57.275,59.243,63.4l-0.265,1.214h9.553
	c2.313,0,4.195-1.884,4.195-4.198v-9.553L71.512,51.127z M29.238,64.615h21.519V19.813H29.238V64.615z M7.271,60.417
	c0,2.313,1.883,4.198,4.197,4.198h9.55L20.754,63.4c-1.329-6.125-6.146-10.941-12.269-12.272L7.27,50.865L7.271,60.417L7.271,60.417
	z M55.145,56.48l1.879,0.483c3.057-5.534,8.607-9.401,14.851-10.34l0.854-0.13V24.013c0-2.316-1.883-4.2-4.195-4.2H55.145V56.48z
	 M11.469,19.813c-2.314,0-4.197,1.884-4.197,4.2v22.481l0.853,0.13c6.239,0.938,11.791,4.802,14.85,10.333l1.878-0.484v-36.66
	H11.469z M39.998,5.389c-5.23,0-9.795,3.716-10.854,8.835l-0.249,1.205h22.21l-0.25-1.205C49.795,9.104,45.229,5.389,39.998,5.389z"
	/>
<rect x="29.238" y="19.813" fill="#B8D9EC" width="21.519" height="44.802"/>
</svg>
