<?xml version="1.0" encoding="utf-8"?>
<!-- Generator: Adobe Illustrator 16.0.0, SVG Export Plug-In . SVG Version: 6.00 Build 0)  -->
<!DOCTYPE svg PUBLIC "-//W3C//DTD SVG 1.1//EN" "http://www.w3.org/Graphics/SVG/1.1/DTD/svg11.dtd">
<svg version="1.1" id="图层_1" xmlns="http://www.w3.org/2000/svg" xmlns:xlink="http://www.w3.org/1999/xlink" x="0px" y="0px"
	 width="22px" height="22px" viewBox="0 0 22 22" enable-background="new 0 0 22 22" xml:space="preserve">
<rect x="1.865" y="5.032" fill="#C5E8FF" width="18.27" height="12.443"/>
<path fill="#095697" d="M20.966,0.845H1.034c-0.418,0-0.757,0.339-0.757,0.757v2.653c0,0.356,0.246,0.655,0.581,0.735v15.25
	c0,0.506,0.409,0.915,0.916,0.915H20.23c0.507,0,0.916-0.409,0.916-0.915V4.994c0.33-0.079,0.58-0.378,0.58-0.735V1.602
	C21.727,1.184,21.384,0.845,20.966,0.845z M1.866,5.016h18.269v12.443H1.866V5.016z M1.285,1.857h19.43v2.147H1.285V1.857z
	 M1.866,20.143v-1.676h18.269v1.676H1.866z"/>
<path fill="#095697" d="M9.341,8.167c-0.238,0-0.453,0.189-0.453,0.453v5.267c0,0.264,0.215,0.453,0.453,0.453
	c0.075,0,0.154-0.018,0.224-0.063l4.563-2.635c0.299-0.172,0.299-0.607,0-0.783L9.565,8.228C9.491,8.184,9.416,8.167,9.341,8.167z"
	/>
</svg>
